<mxfile host="app.diagrams.net" modified="2023-03-28T00:37:09.935Z" agent="5.0 (Windows NT 10.0; Win64; x64) AppleWebKit/537.36 (KHTML, like Gecko) Chrome/88.0.4324.182 Safari/537.36" etag="pQbNuUhNNuv-ScyYPwZo" version="20.4.2" type="github">
  <diagram id="07fea595-8f29-1299-0266-81d95cde20df" name="Page-1">
    <mxGraphModel dx="1422" dy="762" grid="0" gridSize="10" guides="1" tooltips="1" connect="1" arrows="1" fold="1" page="1" pageScale="1" pageWidth="1169" pageHeight="827" background="#ffffff" math="0" shadow="0">
      <root>
        <mxCell id="0" />
        <mxCell id="1" parent="0" />
        <mxCell id="170" value="&lt;font color=&quot;#23497d&quot;&gt;Sales&lt;/font&gt;" style="swimlane;whiteSpace=wrap;fillColor=none;swimlaneFillColor=#BAC8D3;fontColor=#2F5B7C;fontFamily=Tahoma;html=1;strokeColor=none;opacity=50;" parent="1" vertex="1">
          <mxGeometry x="24.5" y="88.5" width="160" height="650" as="geometry">
            <mxRectangle x="20" y="20" width="80" height="23" as="alternateBounds" />
          </mxGeometry>
        </mxCell>
        <mxCell id="171" value="&lt;font style=&quot;font-size: 10px;&quot;&gt;Have a new chance to promote products to sell. Go on CPQ system to fill out the application&lt;/font&gt;" style="whiteSpace=wrap;shadow=0;fontColor=#FFFFFF;fontFamily=Helvetica;fontStyle=0;html=1;fontSize=12;plain-purple;strokeColor=none;fillColor=#2f5b7c;gradientColor=none;spacing=6;verticalAlign=middle;" parent="170" vertex="1">
          <mxGeometry x="20" y="60" width="120" height="60" as="geometry" />
        </mxCell>
        <mxCell id="172" value="&lt;font style=&quot;font-size: 10px;&quot;&gt;Submit project opportunity&lt;/font&gt;" style="whiteSpace=wrap;strokeColor=none;fillColor=#2f5b7c;shadow=0;fontColor=#FFFFFF;fontFamily=Helvetica;fontStyle=0;html=1;fontSize=12;spacing=6;verticalAlign=middle;" parent="170" vertex="1">
          <mxGeometry x="20" y="225.5" width="120" height="60" as="geometry" />
        </mxCell>
        <mxCell id="173" value="&lt;font style=&quot;font-size: 10px;&quot;&gt;Reviewed by Sales director&lt;/font&gt;" style="whiteSpace=wrap;strokeColor=none;fillColor=#2f5b7c;shadow=0;fontColor=#FFFFFF;fontFamily=Helvetica;fontStyle=0;html=1;fontSize=12;spacing=6;verticalAlign=middle;" parent="170" vertex="1">
          <mxGeometry x="20" y="418.5" width="120" height="60" as="geometry" />
        </mxCell>
        <mxCell id="174" value="" style="edgeStyle=segmentEdgeStyle;strokeColor=#2F5B7C;strokeWidth=3;html=1;endArrow=block;endFill=1;" parent="170" source="172" target="173" edge="1">
          <mxGeometry width="100" height="100" relative="1" as="geometry">
            <mxPoint x="170" y="397.5" as="sourcePoint" />
            <mxPoint x="270" y="472.5" as="targetPoint" />
          </mxGeometry>
        </mxCell>
        <mxCell id="175" value="" style="edgeStyle=segmentEdgeStyle;strokeColor=#2F5B7C;strokeWidth=3;html=1;endArrow=block;endFill=1;" parent="170" source="171" target="172" edge="1">
          <mxGeometry width="100" height="100" relative="1" as="geometry">
            <mxPoint x="160" y="110" as="sourcePoint" />
            <mxPoint x="260" y="185" as="targetPoint" />
          </mxGeometry>
        </mxCell>
        <mxCell id="XG21l9AKuwR7gjmhXaEj-217" value="Depends on actual situation" style="edgeLabel;html=1;align=center;verticalAlign=middle;resizable=0;points=[];" vertex="1" connectable="0" parent="175">
          <mxGeometry x="-0.4612" y="8" relative="1" as="geometry">
            <mxPoint y="36" as="offset" />
          </mxGeometry>
        </mxCell>
        <mxCell id="176" value="System" style="swimlane;whiteSpace=wrap;fillColor=none;swimlaneFillColor=#BAC8D3;fontColor=#2F5B7C;fontFamily=Tahoma;html=1;strokeColor=none;opacity=25;" parent="1" vertex="1">
          <mxGeometry x="824.5" y="88.5" width="160" height="650" as="geometry">
            <mxRectangle x="20" y="20" width="80" height="23" as="alternateBounds" />
          </mxGeometry>
        </mxCell>
        <mxCell id="177" value="&lt;font style=&quot;font-size: 11px;&quot;&gt;System backlogs all related persons who applied for the sample&amp;nbsp;&lt;/font&gt;" style="shape=document;whiteSpace=wrap;verticalAlign=middle;strokeColor=none;fillColor=#12aab5;shadow=0;fontColor=#FFFFFF;fontFamily=Helvetica;fontStyle=0;html=1;fontSize=12;spacing=6;spacingBottom=22;" parent="176" vertex="1">
          <mxGeometry x="20" y="50" width="120" height="80" as="geometry" />
        </mxCell>
        <mxCell id="179" value="Cost Allocation" style="whiteSpace=wrap;strokeColor=none;fillColor=#2f5b7c;shadow=0;fontColor=#FFFFFF;fontFamily=Helvetica;fontStyle=0;html=1;fontSize=12;spacing=6;verticalAlign=middle;" parent="176" vertex="1">
          <mxGeometry x="20" y="226.5" width="120" height="60" as="geometry" />
        </mxCell>
        <mxCell id="180" value="&lt;span style=&quot;color: rgb(35, 73, 125);&quot;&gt;Commercial&lt;/span&gt;" style="swimlane;whiteSpace=wrap;fillColor=none;swimlaneFillColor=#BAC8D3;fontColor=#2F5B7C;fontFamily=Tahoma;html=1;strokeColor=none;opacity=50;startSize=23;" parent="1" vertex="1">
          <mxGeometry x="664.5" y="88.5" width="160" height="650" as="geometry">
            <mxRectangle x="20" y="20" width="80" height="23" as="alternateBounds" />
          </mxGeometry>
        </mxCell>
        <mxCell id="181" value="&lt;span style=&quot;font-size: 11px;&quot;&gt;Leticia works on sample ordering&lt;/span&gt;" style="whiteSpace=wrap;fillColor=#2f5b7c;strokeColor=none;shadow=0;fontColor=#FFFFFF;fontFamily=Helvetica;fontStyle=0;html=1;fontSize=12;spacing=6;verticalAlign=middle;" parent="180" vertex="1">
          <mxGeometry x="20" y="51.5" width="120" height="60" as="geometry" />
        </mxCell>
        <mxCell id="XG21l9AKuwR7gjmhXaEj-244" value="" style="edgeStyle=segmentEdgeStyle;strokeColor=#2F5B7C;strokeWidth=3;html=1;endArrow=block;endFill=1;entryX=0;entryY=0.5;entryDx=0;entryDy=0;" edge="1" parent="180" target="179">
          <mxGeometry width="100" height="100" relative="1" as="geometry">
            <mxPoint x="81" y="111.5" as="sourcePoint" />
            <mxPoint x="79" y="245.5" as="targetPoint" />
            <Array as="points">
              <mxPoint x="81" y="252" />
              <mxPoint x="180" y="252" />
            </Array>
          </mxGeometry>
        </mxCell>
        <mxCell id="183" value="&lt;font color=&quot;#23497d&quot;&gt;Pre-sales&lt;/font&gt;" style="swimlane;whiteSpace=wrap;fillColor=none;swimlaneFillColor=#BAC8D3;fontColor=#2F5B7C;fontFamily=Tahoma;html=1;strokeColor=none;opacity=25;startSize=23;" parent="1" vertex="1">
          <mxGeometry x="184.5" y="89" width="160" height="650" as="geometry">
            <mxRectangle x="20" y="20" width="80" height="23" as="alternateBounds" />
          </mxGeometry>
        </mxCell>
        <mxCell id="185" value="&lt;font style=&quot;font-size: 10px;&quot;&gt;By inputting model name or P.N number, corresponidng inventory should be shown&lt;/font&gt;&lt;br&gt; " style="shape=document;whiteSpace=wrap;verticalAlign=middle;strokeColor=none;fillColor=#12aab5;shadow=0;fontColor=#FFFFFF;fontFamily=Helvetica;fontStyle=0;html=1;fontSize=12;spacing=6;spacingBottom=22;" parent="183" vertex="1">
          <mxGeometry x="20" y="225" width="120" height="80" as="geometry" />
        </mxCell>
        <mxCell id="187" value="&lt;font color=&quot;#23497d&quot;&gt;Chinese engineer&lt;/font&gt;" style="swimlane;whiteSpace=wrap;fillColor=none;swimlaneFillColor=#BAC8D3;fontColor=#2F5B7C;fontFamily=Tahoma;html=1;strokeColor=none;opacity=50;" parent="1" vertex="1">
          <mxGeometry x="344.5" y="88.5" width="160" height="650" as="geometry">
            <mxRectangle x="20" y="20" width="80" height="23" as="alternateBounds" />
          </mxGeometry>
        </mxCell>
        <mxCell id="188" value="&lt;font style=&quot;font-size: 9px;&quot;&gt;Check whether need new P.N for new customization. Apply on CR, and input this P.N into CPQ system&amp;nbsp;&lt;/font&gt;" style="shape=document;whiteSpace=wrap;verticalAlign=middle;strokeColor=none;fillColor=#12aab5;shadow=0;fontColor=#FFFFFF;fontFamily=Helvetica;fontStyle=0;html=1;fontSize=12;spacing=6;spacingBottom=22;" parent="187" vertex="1">
          <mxGeometry x="20" y="50" width="120" height="80" as="geometry" />
        </mxCell>
        <mxCell id="XG21l9AKuwR7gjmhXaEj-234" value="" style="edgeStyle=segmentEdgeStyle;strokeColor=#2F5B7C;strokeWidth=3;html=1;endArrow=block;endFill=1;" edge="1" parent="187">
          <mxGeometry width="100" height="100" relative="1" as="geometry">
            <mxPoint x="79.5" y="120.5" as="sourcePoint" />
            <mxPoint x="77.5" y="254.5" as="targetPoint" />
          </mxGeometry>
        </mxCell>
        <mxCell id="193" value="&lt;font color=&quot;#23497d&quot;&gt;Product and solution director&lt;/font&gt;" style="swimlane;whiteSpace=wrap;fillColor=none;swimlaneFillColor=#BAC8D3;fontColor=#2F5B7C;fontFamily=Tahoma;html=1;strokeColor=none;opacity=25;" parent="1" vertex="1">
          <mxGeometry x="501" y="89" width="160" height="650" as="geometry">
            <mxRectangle x="20" y="20" width="80" height="23" as="alternateBounds" />
          </mxGeometry>
        </mxCell>
        <mxCell id="194" value="Approve" style="whiteSpace=wrap;strokeColor=none;fillColor=#2f5b7c;shadow=0;fontColor=#FFFFFF;fontFamily=Helvetica;fontStyle=0;html=1;fontSize=12;spacing=6;verticalAlign=middle;" parent="193" vertex="1">
          <mxGeometry x="20.5" y="51.5" width="120" height="60" as="geometry" />
        </mxCell>
        <mxCell id="195" value="Require more backround information" style="whiteSpace=wrap;strokeColor=none;fillColor=#2f5b7c;shadow=0;fontColor=#FFFFFF;fontFamily=Helvetica;fontStyle=0;html=1;fontSize=12;spacing=6;verticalAlign=middle;" parent="193" vertex="1">
          <mxGeometry x="20" y="224" width="120" height="60" as="geometry" />
        </mxCell>
        <mxCell id="XG21l9AKuwR7gjmhXaEj-219" value="Disapprove" style="whiteSpace=wrap;strokeColor=none;fillColor=#2f5b7c;shadow=0;fontColor=#FFFFFF;fontFamily=Helvetica;fontStyle=0;html=1;fontSize=12;spacing=6;verticalAlign=middle;" vertex="1" parent="193">
          <mxGeometry x="24" y="419" width="120" height="60" as="geometry" />
        </mxCell>
        <mxCell id="XG21l9AKuwR7gjmhXaEj-230" value="" style="edgeStyle=segmentEdgeStyle;strokeColor=#2F5B7C;strokeWidth=3;html=1;endArrow=block;endFill=1;" edge="1" parent="193">
          <mxGeometry x="-19.5" y="190" width="100" height="100" as="geometry">
            <mxPoint x="-19.5" y="81.5" as="sourcePoint" />
            <mxPoint x="25.5" y="81.5" as="targetPoint" />
          </mxGeometry>
        </mxCell>
        <mxCell id="211" value="" style="edgeStyle=segmentEdgeStyle;strokeColor=#2F5B7C;strokeWidth=3;html=1;endArrow=block;endFill=1;entryX=0.5;entryY=1;entryDx=0;entryDy=0;exitX=0.5;exitY=0;exitDx=0;exitDy=0;" parent="193" source="195" target="194" edge="1">
          <mxGeometry x="140" y="220" width="100" height="100" as="geometry">
            <mxPoint x="140" y="350" as="sourcePoint" />
            <mxPoint x="240" y="250" as="targetPoint" />
            <Array as="points">
              <mxPoint x="81" y="187" />
              <mxPoint x="81" y="187" />
            </Array>
          </mxGeometry>
        </mxCell>
        <mxCell id="196" value="Sample management" style="swimlane;whiteSpace=wrap;fillColor=none;swimlaneFillColor=#BAC8D3;fontColor=#2F5B7C;fontFamily=Tahoma;html=1;strokeColor=none;opacity=50;startSize=23;" parent="1" vertex="1">
          <mxGeometry x="984.5" y="88.5" width="160" height="650" as="geometry">
            <mxRectangle x="20" y="20" width="80" height="23" as="alternateBounds" />
          </mxGeometry>
        </mxCell>
        <mxCell id="197" value="&lt;font style=&quot;font-size: 11px;&quot;&gt;Sample status should be followed by Product manager and Sales&lt;/font&gt;" style="shape=document;whiteSpace=wrap;verticalAlign=middle;strokeColor=none;fillColor=#12aab5;shadow=0;fontColor=#FFFFFF;fontFamily=Helvetica;fontStyle=0;html=1;fontSize=12;spacing=6;spacingBottom=22;" parent="196" vertex="1">
          <mxGeometry x="17.5" y="49.5" width="120" height="80" as="geometry" />
        </mxCell>
        <mxCell id="198" value="&lt;font style=&quot;font-size: 8px;&quot;&gt;To have a motivation plan that encourage simutaneously sample requiring quantity and sales amount&amp;nbsp;&lt;/font&gt;" style="whiteSpace=wrap;strokeColor=none;fillColor=#2f5b7c;shadow=0;fontColor=#FFFFFF;fontFamily=Helvetica;fontStyle=0;html=1;fontSize=12;spacing=6;verticalAlign=middle;" parent="196" vertex="1">
          <mxGeometry x="20" y="222.5" width="120" height="60" as="geometry" />
        </mxCell>
        <mxCell id="199" value="Long Term Strategy" style="whiteSpace=wrap;strokeColor=none;fillColor=#2f5b7c;shadow=0;fontColor=#FFFFFF;fontFamily=Helvetica;fontStyle=0;html=1;fontSize=12;spacing=6;verticalAlign=middle;" parent="196" vertex="1">
          <mxGeometry x="20" y="400" width="120" height="60" as="geometry" />
        </mxCell>
        <mxCell id="202" value="" style="edgeStyle=segmentEdgeStyle;strokeColor=#2F5B7C;strokeWidth=3;html=1;endArrow=block;endFill=1;" parent="1" source="171" edge="1">
          <mxGeometry x="164.5" y="178.5" width="100" height="100" as="geometry">
            <mxPoint x="224.5" y="248.5" as="sourcePoint" />
            <mxPoint x="265" y="310" as="targetPoint" />
            <Array as="points">
              <mxPoint x="265" y="179" />
            </Array>
          </mxGeometry>
        </mxCell>
        <mxCell id="204" value="" style="edgeStyle=segmentEdgeStyle;strokeColor=#2F5B7C;strokeWidth=3;html=1;endArrow=block;endFill=1;startArrow=none;" parent="1" source="XG21l9AKuwR7gjmhXaEj-220" target="188" edge="1">
          <mxGeometry x="164.5" y="178.5" width="100" height="100" as="geometry">
            <mxPoint x="174.5" y="188.5" as="sourcePoint" />
            <mxPoint x="274.5" y="263.5" as="targetPoint" />
          </mxGeometry>
        </mxCell>
        <mxCell id="209" value="" style="edgeStyle=none;strokeColor=#2F5B7C;strokeWidth=3;html=1;endArrow=block;endFill=1;" parent="1" source="194" target="181" edge="1">
          <mxGeometry x="644.5" y="278.5" width="100" height="100" as="geometry">
            <mxPoint x="684.5" y="458.5" as="sourcePoint" />
            <mxPoint x="784.5" y="358.5" as="targetPoint" />
          </mxGeometry>
        </mxCell>
        <mxCell id="213" value="" style="edgeStyle=segmentEdgeStyle;strokeColor=#2F5B7C;strokeWidth=3;html=1;endArrow=block;endFill=1;" parent="1" source="181" target="177" edge="1">
          <mxGeometry x="744.5" y="178.5" width="100" height="100" as="geometry">
            <mxPoint x="864.5" y="378.5" as="sourcePoint" />
            <mxPoint x="964.5" y="278.5" as="targetPoint" />
            <Array as="points">
              <mxPoint x="744.5" y="178.5" />
            </Array>
          </mxGeometry>
        </mxCell>
        <mxCell id="XG21l9AKuwR7gjmhXaEj-220" value="&lt;font style=&quot;font-size: 9px;&quot;&gt;Review the solution, confirm detailed P.N and product model, fill application table&lt;/font&gt;" style="whiteSpace=wrap;shadow=0;fontColor=#FFFFFF;fontFamily=Helvetica;fontStyle=0;html=1;fontSize=12;plain-purple;strokeColor=none;fillColor=#2f5b7c;gradientColor=none;spacing=6;verticalAlign=middle;" vertex="1" parent="1">
          <mxGeometry x="204.5" y="148.5" width="120" height="60" as="geometry" />
        </mxCell>
        <mxCell id="XG21l9AKuwR7gjmhXaEj-221" value="" style="edgeStyle=segmentEdgeStyle;strokeColor=#2F5B7C;strokeWidth=3;html=1;endArrow=none;endFill=1;" edge="1" parent="1" source="171" target="XG21l9AKuwR7gjmhXaEj-220">
          <mxGeometry x="164.5" y="178.5" width="100" height="100" as="geometry">
            <mxPoint x="164.5" y="178.5" as="sourcePoint" />
            <mxPoint x="364.5" y="178.5" as="targetPoint" />
          </mxGeometry>
        </mxCell>
        <mxCell id="XG21l9AKuwR7gjmhXaEj-243" value="" style="edgeStyle=segmentEdgeStyle;strokeColor=#2F5B7C;strokeWidth=3;html=1;endArrow=block;endFill=1;entryX=0;entryY=0.5;entryDx=0;entryDy=0;" edge="1" parent="1" target="195">
          <mxGeometry width="100" height="100" relative="1" as="geometry">
            <mxPoint x="423" y="338" as="sourcePoint" />
            <mxPoint x="432" y="353" as="targetPoint" />
            <Array as="points">
              <mxPoint x="423" y="343" />
            </Array>
          </mxGeometry>
        </mxCell>
      </root>
    </mxGraphModel>
  </diagram>
</mxfile>
